Motion_pl02
version=1
nRows=10
nColumns=43
inDegrees=yes
endheader
time	pelvis_tilt	pelvis_list	pelvis_rotation	pelvis_tx	pelvis_ty	pelvis_tz	hip_flexion_r	hip_adduction_r	hip_rotation_r	knee_angle_r	ankle_angle_r	subtalar_angle_r	mtp_angle_r	hip_flexion_l	hip_adduction_l	hip_rotation_l	knee_angle_l	ankle_angle_l	subtalar_angle_l	mtp_angle_l	lumbar_extension	lumbar_bending	lumbar_rotation	neck_flexion	neck_lateral_bending	neck_rotation	arm_flex_r	arm_add_r	arm_rot_r	elbow_flex_r	pro_sup_r	wrist_flex_r	wrist_dev_r	hand_finger_flex_r	arm_flex_l	arm_add_l	arm_rot_l	elbow_flex_l	pro_sup_l	wrist_flex_l	wrist_dev_l	hand_finger_flex_l
      0.54500000	      6.06624330	    -31.00897256	     92.62092343	     -0.00365319	      1.79763682	      1.53301561	     68.75606533	    -14.05077260	      0.34457661	   -119.03471740	     -1.19895337	      1.26114493	     -6.20822234	     67.68066439	     -9.31467638	      6.33933797	   -119.14030099	      4.43954872	    -10.63742176	    -24.20464010	    -21.84500297	      4.37963955	      2.25159279	     23.04927647	     -0.23522816	      4.40221470	    131.06158142	    -18.91926835	     53.58023694	     58.27965580	     63.17772455	    -19.53714549	    -14.64663707	     55.13839248	    139.16299359	    -20.53801516	     73.00446656	     62.13697709	     62.70394491	    -43.70226577	      2.58858559	     82.85582784
      0.54750000	      6.03326634	    -30.90292464	     92.60689199	     -0.00363196	      1.79824822	      1.52834271	     68.88004895	    -13.98231279	      0.30006046	   -119.07516441	     -0.70741875	      1.26697919	     -6.16302616	     67.77782275	     -9.28376575	      6.42374802	   -119.04636373	      3.77644502	    -10.64610812	    -24.09760899	    -21.90598860	      4.30828907	      2.24866402	     22.93998350	     -0.17022622	      4.35569129	    131.20175029	    -19.17867401	     54.04899528	     58.31206384	     63.65467622	    -19.48294884	    -14.50807101	     55.09961892	    139.39770906	    -20.53975899	     73.58509142	     62.05260658	     62.98005269	    -43.57082100	      2.69140623	     82.85817577
      0.55000000	      5.98994540	    -30.80137431	     92.60091432	     -0.00364131	      1.79879779	      1.52377235	     69.02422100	    -13.89711783	      0.28668757	   -119.13348902	      0.03438383	      1.54538189	     -5.99047088	     67.90397885	     -9.22390579	      6.48597538	   -118.96356818	      3.32223054	    -10.70106524	    -23.81307214	    -21.99446471	      4.20661273	      2.23030769	     23.05697889	     -0.01269738	      4.28507888	    131.33095006	    -19.45946005	     54.41097589	     58.37198036	     64.33975527	    -19.51559083	    -14.27856766	     54.99754678	    139.70670034	    -20.45796778	     74.21946341	     61.88527952	     63.37705836	    -43.41307789	      2.83733676	     82.82719547
      0.55250000	      5.90379993	    -30.65818548	     92.52458326	     -0.00366421	      1.79938449	      1.51899852	     69.16005119	    -13.85435068	      0.26396696	   -119.19576541	      0.72078319	      1.60903044	     -5.81123301	     67.94384222	     -9.20016485	      6.52500419	   -118.85645093	      3.06413664	    -10.52520434	    -23.69716595	    -22.08854355	      4.10217497	      2.22767361	     22.77027014	      0.00777953	      4.28325769	    131.36303338	    -19.69791616	     54.79679322	     58.49113450	     64.72116757	    -19.46403690	    -14.12786272	     54.99683277	    139.82188533	    -20.54345297	     74.66670242	     61.91733115	     63.61740181	    -43.28421653	      2.90976053	     82.85041857
      0.55500000	      5.78577862	    -30.54614100	     92.43569153	     -0.00356790	      1.79985449	      1.51455077	     69.37317859	    -13.73921876	      0.37604746	   -119.28804231	      1.67484865	      2.23594176	     -5.21506700	     68.05447333	     -9.13571583	      6.57772879	   -118.78892691	      3.10989576	    -10.21233919	    -23.29309382	    -22.23006126	      3.91148424	      2.20889040	     22.94974747	      0.19470010	      4.20670795	    131.45415121	    -19.96227316	     55.04107005	     58.61720498	     65.52592346	    -19.58961596	    -13.77798918	     54.92431859	    140.15333105	    -20.47087176	     75.26366270	     61.73966175	     64.17741546	    -43.08353992	      3.03486244	     82.82680670
      0.55750000	      5.67420927	    -30.40143844	     92.34791482	     -0.00354344	      1.80030361	      1.50981544	     69.53888578	    -13.69646296	      0.32644113	   -119.35447661	      2.43740307	      2.19762468	     -4.89980236	     68.12140546	     -9.12073934	      6.56351742	   -118.69761906	      3.14874641	    -10.06400681	    -23.15883835	    -22.32792175	      3.78256212	      2.20880896	     22.65460343	      0.17296623	      4.22321569	    131.45428847	    -20.18593681	     55.40766743	     58.69719507	     65.87321139	    -19.54204809	    -13.61088552	     54.95383910	    140.22655377	    -20.54869805	     75.67787628	     61.77330214	     64.43246879	    -42.95310110	      3.08954942	     82.85850088
      0.56000000	      5.58053015	    -30.29389879	     92.25933864	     -0.00347985	      1.80060841	      1.50535005	     69.78491650	    -13.58736191	      0.33669168	   -119.43742892	      3.28451538	      2.28544048	     -4.45677207	     68.27052816	     -9.09282537	      6.59141282	   -118.63657305	      3.42205757	     -9.88145133	    -22.97203684	    -22.43872371	      3.64421674	      2.21331210	     22.62795335	      0.20028493	      4.18622755	    131.53461314	    -20.40304954	     55.76550556	     58.72951162	     66.34494947	    -19.56854579	    -13.40836385	     54.97249526	    140.42295989	    -20.56342653	     76.18314453	     61.70841837	     64.83976638	    -42.80538609	      3.12103024	     82.88081991
      0.56250000	      5.48161800	    -30.17751793	     92.15945702	     -0.00338183	      1.80089477	      1.50085055	     70.04578786	    -13.49625859	      0.33723666	   -119.50935854	      3.95620070	      2.44794820	     -3.87409737	     68.41245573	     -9.08262284	      6.58840060	   -118.56964856	      3.80290450	     -9.64736572	    -22.72718807	    -22.56780450	      3.49248543	      2.22529960	     22.61738265	      0.25958106	      4.15241569	    131.55768815	    -20.63234293	     56.04894420	     58.82925069	     66.88569971	    -19.65091857	    -13.17106572	     55.00197098	    140.61023645	    -20.58443761	     76.67725463	     61.66219114	     65.35152320	    -42.65123955	      3.12940630	     82.90902986
      0.56500000	      5.26948762	    -30.05453843	     91.93378458	     -0.00313041	      1.80121946	      1.49652876	     70.39763205	    -13.33836044	      0.55590628	   -119.54840960	      4.22585731	      2.79286088	     -2.00121376	     68.55573718	     -9.04161365	      6.55756218	   -118.52715612	      4.20272708	     -9.02925680	    -21.98225598	    -22.76053046	      3.16713653	      2.22746963	     22.81369432	      0.54528215	      4.10147897	    131.41930511	    -20.82811187	     55.86999647	     59.04390120	     68.02204807	    -20.03852326	    -12.52353603	     55.09846197	    140.80801770	    -20.50487505	     77.01377055	     61.47301583	     66.50587111	    -42.43141537	      3.15025687	     82.94540176
      0.56750000	      5.22243168	    -29.89073102	     91.90873838	     -0.00327986	      1.80147500	      1.49186237	     70.59325796	    -13.27711152	      0.45583444	   -119.55907868	      4.57370586	      2.55871629	     -1.72629192	     68.67624953	     -8.95921308	      6.53770859	   -118.45804461	      4.56532053	     -9.26947932	    -21.85043556	    -22.89945331	      3.12976384	      2.23921483	     22.52250471	      0.43040345	      4.14253833	    131.31382618	    -21.04397315	     56.10071569	     59.14360784	     68.17626024	    -19.94897216	    -12.45379804	     55.16583948	    140.76287001	    -20.60421944	     77.27278590	     61.55344204	     66.64787502	    -42.33833766	      3.19297158	     82.98806562
